<svg xmlns="http://www.w3.org/2000/svg" xmlns:xlink="http://www.w3.org/1999/xlink" width="230" zoomAndPan="magnify" viewBox="0 0 172.5 36.000001" height="48" preserveAspectRatio="xMidYMid meet" version="1.0"><defs><g/><clipPath id="06972b4e08"><path d="M 137.003906 2.375 L 169.925781 2.375 L 169.925781 33.84375 L 137.003906 33.84375 Z M 137.003906 2.375 " clip-rule="nonzero"/></clipPath></defs><g fill="#252538" fill-opacity="1"><g transform="translate(2.087835, 33.04123)"><g><path d="M 13.109375 -14.78125 C 12.390625 -14.875 11.753906 -14.921875 11.203125 -14.921875 C 9.210938 -14.921875 7.910156 -14.25 7.296875 -12.90625 L 7.296875 0 L 2.015625 0 L 2.015625 -19.71875 L 7 -19.71875 L 7.140625 -17.375 C 8.203125 -19.175781 9.664062 -20.078125 11.53125 -20.078125 C 12.113281 -20.078125 12.660156 -20 13.171875 -19.84375 Z M 13.109375 -14.78125 "/></g></g></g><g fill="#252538" fill-opacity="1"><g transform="translate(13.202574, 33.04123)"><g><path d="M 1.203125 -10.046875 C 1.203125 -12.003906 1.578125 -13.75 2.328125 -15.28125 C 3.085938 -16.8125 4.171875 -17.992188 5.578125 -18.828125 C 6.992188 -19.660156 8.640625 -20.078125 10.515625 -20.078125 C 13.179688 -20.078125 15.351562 -19.265625 17.03125 -17.640625 C 18.71875 -16.015625 19.65625 -13.804688 19.84375 -11.015625 L 19.890625 -9.65625 C 19.890625 -6.632812 19.039062 -4.207031 17.34375 -2.375 C 15.65625 -0.550781 13.390625 0.359375 10.546875 0.359375 C 7.703125 0.359375 5.429688 -0.550781 3.734375 -2.375 C 2.046875 -4.195312 1.203125 -6.675781 1.203125 -9.8125 Z M 6.46875 -9.65625 C 6.46875 -7.789062 6.816406 -6.359375 7.515625 -5.359375 C 8.222656 -4.367188 9.234375 -3.875 10.546875 -3.875 C 11.828125 -3.875 12.828125 -4.363281 13.546875 -5.34375 C 14.265625 -6.320312 14.625 -7.890625 14.625 -10.046875 C 14.625 -11.878906 14.265625 -13.300781 13.546875 -14.3125 C 12.828125 -15.320312 11.816406 -15.828125 10.515625 -15.828125 C 9.222656 -15.828125 8.222656 -15.320312 7.515625 -14.3125 C 6.816406 -13.3125 6.46875 -11.757812 6.46875 -9.65625 Z M 6.46875 -9.65625 "/></g></g></g><g fill="#252538" fill-opacity="1"><g transform="translate(31.808868, 33.04123)"><g><path d="M 19.796875 -9.671875 C 19.796875 -6.515625 19.117188 -4.050781 17.765625 -2.28125 C 16.421875 -0.519531 14.539062 0.359375 12.125 0.359375 C 9.976562 0.359375 8.269531 -0.457031 7 -2.09375 L 6.765625 0 L 2.015625 0 L 2.015625 -28 L 7.296875 -28 L 7.296875 -17.953125 C 8.503906 -19.367188 10.097656 -20.078125 12.078125 -20.078125 C 14.484375 -20.078125 16.367188 -19.191406 17.734375 -17.421875 C 19.109375 -15.660156 19.796875 -13.175781 19.796875 -9.96875 Z M 14.53125 -10.0625 C 14.53125 -12.050781 14.210938 -13.503906 13.578125 -14.421875 C 12.941406 -15.335938 12 -15.796875 10.75 -15.796875 C 9.070312 -15.796875 7.921875 -15.113281 7.296875 -13.75 L 7.296875 -5.953125 C 7.929688 -4.566406 9.097656 -3.875 10.796875 -3.875 C 12.492188 -3.875 13.609375 -4.710938 14.140625 -6.390625 C 14.398438 -7.191406 14.53125 -8.414062 14.53125 -10.0625 Z M 14.53125 -10.0625 "/></g></g></g><g fill="#252538" fill-opacity="1"><g transform="translate(50.324025, 33.04123)"><g><path d="M 6.96875 -19.71875 L 7.125 -17.515625 C 8.519531 -19.222656 10.410156 -20.078125 12.796875 -20.078125 C 15.335938 -20.078125 17.082031 -19.078125 18.03125 -17.078125 C 19.414062 -19.078125 21.390625 -20.078125 23.953125 -20.078125 C 26.085938 -20.078125 27.675781 -19.453125 28.71875 -18.203125 C 29.769531 -16.960938 30.296875 -15.09375 30.296875 -12.59375 L 30.296875 0 L 25 0 L 25 -12.578125 C 25 -13.691406 24.78125 -14.503906 24.34375 -15.015625 C 23.90625 -15.535156 23.132812 -15.796875 22.03125 -15.796875 C 20.457031 -15.796875 19.363281 -15.046875 18.75 -13.546875 L 18.765625 0 L 13.5 0 L 13.5 -12.5625 C 13.5 -13.695312 13.273438 -14.519531 12.828125 -15.03125 C 12.378906 -15.539062 11.613281 -15.796875 10.53125 -15.796875 C 9.039062 -15.796875 7.960938 -15.175781 7.296875 -13.9375 L 7.296875 0 L 2.015625 0 L 2.015625 -19.71875 Z M 6.96875 -19.71875 "/></g></g></g><g fill="#252538" fill-opacity="1"><g transform="translate(80.140308, 33.04123)"><g><path d="M 1.203125 -10.046875 C 1.203125 -12.003906 1.578125 -13.75 2.328125 -15.28125 C 3.085938 -16.8125 4.171875 -17.992188 5.578125 -18.828125 C 6.992188 -19.660156 8.640625 -20.078125 10.515625 -20.078125 C 13.179688 -20.078125 15.351562 -19.265625 17.03125 -17.640625 C 18.71875 -16.015625 19.65625 -13.804688 19.84375 -11.015625 L 19.890625 -9.65625 C 19.890625 -6.632812 19.039062 -4.207031 17.34375 -2.375 C 15.65625 -0.550781 13.390625 0.359375 10.546875 0.359375 C 7.703125 0.359375 5.429688 -0.550781 3.734375 -2.375 C 2.046875 -4.195312 1.203125 -6.675781 1.203125 -9.8125 Z M 6.46875 -9.65625 C 6.46875 -7.789062 6.816406 -6.359375 7.515625 -5.359375 C 8.222656 -4.367188 9.234375 -3.875 10.546875 -3.875 C 11.828125 -3.875 12.828125 -4.363281 13.546875 -5.34375 C 14.265625 -6.320312 14.625 -7.890625 14.625 -10.046875 C 14.625 -11.878906 14.265625 -13.300781 13.546875 -14.3125 C 12.828125 -15.320312 11.816406 -15.828125 10.515625 -15.828125 C 9.222656 -15.828125 8.222656 -15.320312 7.515625 -14.3125 C 6.816406 -13.3125 6.46875 -11.757812 6.46875 -9.65625 Z M 6.46875 -9.65625 "/></g></g></g><g fill="#252538" fill-opacity="1"><g transform="translate(98.746606, 33.04123)"><g><path d="M 9.40625 -6.4375 L 13.0625 -19.71875 L 18.578125 -19.71875 L 11.921875 0 L 6.890625 0 L 0.234375 -19.71875 L 5.734375 -19.71875 Z M 9.40625 -6.4375 "/></g></g></g><g fill="#252538" fill-opacity="1"><g transform="translate(115.1109, 33.04123)"><g><path d="M 11.09375 0.359375 C 8.207031 0.359375 5.851562 -0.523438 4.03125 -2.296875 C 2.21875 -4.066406 1.3125 -6.429688 1.3125 -9.390625 L 1.3125 -9.890625 C 1.3125 -11.878906 1.691406 -13.648438 2.453125 -15.203125 C 3.222656 -16.765625 4.304688 -17.96875 5.703125 -18.8125 C 7.109375 -19.65625 8.710938 -20.078125 10.515625 -20.078125 C 13.210938 -20.078125 15.332031 -19.226562 16.875 -17.53125 C 18.425781 -15.832031 19.203125 -13.421875 19.203125 -10.296875 L 19.203125 -8.140625 L 6.65625 -8.140625 C 6.820312 -6.859375 7.332031 -5.828125 8.1875 -5.046875 C 9.050781 -4.265625 10.140625 -3.875 11.453125 -3.875 C 13.472656 -3.875 15.054688 -4.613281 16.203125 -6.09375 L 18.796875 -3.1875 C 18.003906 -2.070312 16.929688 -1.203125 15.578125 -0.578125 C 14.234375 0.046875 12.738281 0.359375 11.09375 0.359375 Z M 10.5 -15.828125 C 9.457031 -15.828125 8.609375 -15.472656 7.953125 -14.765625 C 7.304688 -14.054688 6.890625 -13.046875 6.703125 -11.734375 L 14.03125 -11.734375 L 14.03125 -12.15625 C 14.007812 -13.320312 13.691406 -14.222656 13.078125 -14.859375 C 12.472656 -15.503906 11.613281 -15.828125 10.5 -15.828125 Z M 10.5 -15.828125 "/></g></g></g><g fill="#252538" fill-opacity="1"><g transform="translate(132.777825, 33.04123)"><g/></g></g><g clip-path="url(#06972b4e08)"><path fill="#00e1b3" d="M 168.226562 18.828125 L 166.902344 18.828125 L 166.902344 32.460938 C 166.890625 32.648438 166.84375 32.824219 166.765625 32.992188 C 166.683594 33.15625 166.574219 33.304688 166.433594 33.425781 C 166.296875 33.550781 166.140625 33.644531 165.964844 33.707031 C 165.792969 33.769531 165.613281 33.792969 165.425781 33.785156 L 157.605469 33.785156 L 157.605469 24.488281 C 157.605469 24.359375 157.582031 24.234375 157.53125 24.117188 C 157.484375 24 157.414062 23.894531 157.324219 23.800781 C 157.230469 23.710938 157.128906 23.640625 157.007812 23.589844 C 156.890625 23.542969 156.769531 23.515625 156.640625 23.515625 L 150.964844 23.515625 C 150.835938 23.515625 150.714844 23.542969 150.59375 23.589844 C 150.476562 23.640625 150.371094 23.710938 150.28125 23.800781 C 150.191406 23.894531 150.121094 24 150.070312 24.117188 C 150.023438 24.234375 150 24.359375 150 24.488281 L 150 33.785156 L 142.175781 33.785156 C 141.992188 33.792969 141.8125 33.769531 141.640625 33.707031 C 141.464844 33.644531 141.308594 33.554688 141.171875 33.429688 C 141.035156 33.304688 140.925781 33.160156 140.84375 32.992188 C 140.765625 32.828125 140.71875 32.652344 140.707031 32.464844 L 140.707031 18.828125 L 139.378906 18.828125 C 137.902344 18.828125 137.105469 17.433594 138.070312 16.539062 L 152.621094 3.027344 C 152.804688 2.875 153.011719 2.753906 153.238281 2.671875 C 153.460938 2.589844 153.695312 2.546875 153.9375 2.546875 C 154.175781 2.546875 154.410156 2.589844 154.636719 2.671875 C 154.859375 2.757812 155.066406 2.878906 155.246094 3.035156 C 160.011719 7.539062 164.777344 12.039062 169.546875 16.542969 C 170.492188 17.445312 169.695312 18.828125 168.226562 18.828125 Z M 168.226562 18.828125 " fill-opacity="1" fill-rule="nonzero"/></g></svg>